<svg preserveAspectRatio="none" width="100%" height="100%" overflow="visible" style="display: block;" viewBox="0 0 20 20" fill="none" xmlns="http://www.w3.org/2000/svg">
<g id="mynaui:edit-solid">
<path id="Vector" d="M15.7705 2.61416C15.5362 2.37971 15.2579 2.19374 14.9517 2.06688C14.6455 1.94002 14.3172 1.87477 13.9858 1.87485C13.6543 1.87492 13.3261 1.94033 13.0199 2.06733C12.7137 2.19433 12.4356 2.38043 12.2013 2.61499L4.27884 10.5483C3.80679 11.0215 3.54158 11.6625 3.54134 12.3308V15C3.54134 15.345 3.82134 15.625 4.16634 15.625H6.85217C7.52134 15.625 8.16301 15.3583 8.63551 14.8858L16.5522 6.96416C17.0244 6.4908 17.2896 5.84946 17.2896 5.18083C17.2896 4.51219 17.0244 3.87085 16.5522 3.39749L15.7705 2.61416ZM3.33301 16.875C3.16725 16.875 3.00828 16.9408 2.89107 17.058C2.77386 17.1753 2.70801 17.3342 2.70801 17.5C2.70801 17.6658 2.77386 17.8247 2.89107 17.9419C3.00828 18.0591 3.16725 18.125 3.33301 18.125H16.6663C16.8321 18.125 16.9911 18.0591 17.1083 17.9419C17.2255 17.8247 17.2913 17.6658 17.2913 17.5C17.2913 17.3342 17.2255 17.1753 17.1083 17.058C16.9911 16.9408 16.8321 16.875 16.6663 16.875H3.33301Z" fill="var(--fill-0, #444444)"/>
</g>
</svg>
