<svg preserveAspectRatio="none" width="100%" height="100%" overflow="visible" style="display: block;" viewBox="0 0 20 20" fill="none" xmlns="http://www.w3.org/2000/svg">
<g id="tabler:exchange-filled">
<path id="Vector" d="M15.8337 2.5C16.4241 2.49912 16.9957 2.70721 17.4474 3.08743C17.8991 3.46765 18.2016 3.99545 18.3014 4.57735C18.4012 5.15925 18.2919 5.7577 17.9927 6.2667C17.6936 6.7757 17.2239 7.16241 16.667 7.35833V10.8333C16.667 12.1594 16.1402 13.4312 15.2025 14.3689C14.2648 15.3065 12.9931 15.8333 11.667 15.8333H11.1795L12.2562 16.9108C12.3996 17.0543 12.4858 17.2452 12.4986 17.4478C12.5113 17.6503 12.4497 17.8505 12.3253 18.0108L12.2562 18.0892C12.0999 18.2454 11.888 18.3332 11.667 18.3332C11.446 18.3332 11.2341 18.2454 11.0778 18.0892L8.61199 15.6233C8.52865 15.5487 8.4612 15.458 8.41366 15.3567L8.38199 15.2808L8.35866 15.2025C8.32614 15.0784 8.3233 14.9484 8.35037 14.823C8.37744 14.6977 8.43367 14.5804 8.51449 14.4808L8.57783 14.4108L11.0778 11.9108C11.235 11.759 11.4455 11.675 11.664 11.6769C11.8825 11.6788 12.0915 11.7665 12.246 11.921C12.4005 12.0755 12.4882 12.2845 12.4901 12.503C12.492 12.7215 12.408 12.932 12.2562 13.0892L11.1787 14.1667H11.667C12.5222 14.1667 13.3447 13.838 13.9643 13.2486C14.584 12.6592 14.9534 11.8541 14.9962 11L15.0003 10.8333V7.3575C14.5128 7.18514 14.0908 6.86587 13.7923 6.44365C13.4938 6.02144 13.3336 5.51706 13.3337 5L13.3378 4.85333C13.3752 4.21675 13.6545 3.61853 14.1184 3.18106C14.5824 2.7436 15.196 2.49996 15.8337 2.5ZM8.92283 1.91083L11.4228 4.41083C11.526 4.51166 11.6007 4.63804 11.6392 4.7771C11.6777 4.91616 11.6787 5.06294 11.642 5.2025L11.6337 5.22833L11.6312 5.24333L11.6245 5.25833L11.6187 5.28083L11.6053 5.31L11.597 5.33666L11.5912 5.345L11.587 5.35666C11.5406 5.45634 11.4748 5.54583 11.3937 5.62L8.92283 8.08916C8.77933 8.23264 8.58842 8.31884 8.38589 8.33157C8.18337 8.3443 7.98316 8.28271 7.82283 8.15833L7.74449 8.08916C7.58827 7.93289 7.5005 7.72097 7.5005 7.5C7.5005 7.27903 7.58827 7.0671 7.74449 6.91083L8.82033 5.83333H8.33366C7.47846 5.83333 6.65597 6.16202 6.03632 6.75143C5.41666 7.34084 5.04725 8.14586 5.00449 9L5.00033 9.16666V12.6425C5.43274 12.7951 5.81485 13.0638 6.10489 13.4189C6.39492 13.7741 6.58172 14.2022 6.64485 14.6564C6.70798 15.1106 6.64501 15.5734 6.46283 15.9942C6.28065 16.4151 5.98627 16.7777 5.61188 17.0425C5.23749 17.3073 4.7975 17.464 4.34003 17.4956C3.88255 17.5272 3.4252 17.4324 3.01799 17.2215C2.61077 17.0107 2.26936 16.6919 2.03109 16.3001C1.79282 15.9083 1.66686 15.4586 1.66699 15L1.67116 14.8533C1.69978 14.362 1.87281 13.89 2.16856 13.4965C2.4643 13.1031 2.86961 12.8057 3.33366 12.6417V9.16666C3.33366 7.84058 3.86044 6.56881 4.79813 5.63113C5.73581 4.69345 7.00758 4.16666 8.33366 4.16666H8.82116L7.74449 3.08916C7.60101 2.94567 7.51482 2.75475 7.50209 2.55223C7.48935 2.34971 7.55095 2.1495 7.67533 1.98916L7.74449 1.91083C7.90077 1.7546 8.11269 1.66684 8.33366 1.66684C8.55463 1.66684 8.76655 1.7546 8.92283 1.91083Z" fill="var(--fill-0, #949494)"/>
</g>
</svg>
