<svg preserveAspectRatio="none" width="100%" height="100%" overflow="visible" style="display: block;" viewBox="0 0 19 19" fill="none" xmlns="http://www.w3.org/2000/svg">
<g id="Frame 78">
<rect width="19" height="19" rx="9.5" fill="var(--fill-0, #E0001A)" fill-opacity="0.1"/>
<path id="Vector" d="M9.43045 8.21053L10.7273 9.37474V9.31579C10.7273 9.02266 10.598 8.74153 10.3678 8.53425C10.1377 8.32697 9.82549 8.21053 9.5 8.21053H9.43045ZM7.67136 8.50526L8.30545 9.07632C8.285 9.15368 8.27273 9.23105 8.27273 9.31579C8.27273 9.60892 8.40203 9.89005 8.63219 10.0973C8.86235 10.3046 9.17451 10.4211 9.5 10.4211C9.59 10.4211 9.68 10.41 9.76591 10.3916L10.4 10.9626C10.1259 11.0842 9.82318 11.1579 9.5 11.1579C8.95751 11.1579 8.43724 10.9638 8.05365 10.6184C7.67005 10.2729 7.45455 9.80435 7.45455 9.31579C7.45455 9.02474 7.53636 8.75211 7.67136 8.50526ZM5.40909 6.46789L6.34182 7.30789L6.52591 7.47368C5.85091 7.95263 5.31909 8.57895 5 9.31579C5.70773 10.9332 7.45455 12.0789 9.5 12.0789C10.1341 12.0789 10.7395 11.9684 11.2918 11.7695L11.4677 11.9242L12.6623 13L13.1818 12.5321L5.92864 6M9.5 7.47368C10.0425 7.47368 10.5628 7.66776 10.9464 8.01322C11.33 8.35869 11.5455 8.82723 11.5455 9.31579C11.5455 9.55158 11.4923 9.78 11.3982 9.98632L12.5968 11.0658C13.2105 10.6053 13.7014 10.0011 14 9.31579C13.2923 7.69842 11.5455 6.55263 9.5 6.55263C8.92727 6.55263 8.37909 6.64474 7.86364 6.81053L8.75136 7.60263C8.98455 7.52158 9.23409 7.47368 9.5 7.47368Z" fill="var(--fill-0, #E0001A)"/>
</g>
</svg>
