<svg preserveAspectRatio="none" width="100%" height="100%" overflow="visible" style="display: block;" viewBox="0 0 20 20" fill="none" xmlns="http://www.w3.org/2000/svg">
<g id="stash:list-ul-duotone">
<path id="Vector" d="M3.96774 4C3.71108 4 3.46493 4.10536 3.28345 4.29289C3.10196 4.48043 3 4.73478 3 5C3 5.26522 3.10196 5.51957 3.28345 5.70711C3.46493 5.89464 3.71108 6 3.96774 6C4.2244 6 4.47055 5.89464 4.65204 5.70711C4.83353 5.51957 4.93548 5.26522 4.93548 5C4.93548 4.73478 4.83353 4.48043 4.65204 4.29289C4.47055 4.10536 4.2244 4 3.96774 4ZM7.35484 4C7.09818 4 6.85203 4.10536 6.67054 4.29289C6.48906 4.48043 6.3871 4.73478 6.3871 5C6.3871 5.26522 6.48906 5.51957 6.67054 5.70711C6.85203 5.89464 7.09818 6 7.35484 6H17.0323C17.2889 6 17.5351 5.89464 17.7166 5.70711C17.898 5.51957 18 5.26522 18 5C18 4.73478 17.898 4.48043 17.7166 4.29289C17.5351 4.10536 17.2889 4 17.0323 4H7.35484ZM7.45161 9C7.16929 9 6.89852 9.11589 6.69889 9.32218C6.49925 9.52847 6.3871 9.80826 6.3871 10.1C6.3871 10.3917 6.49925 10.6715 6.69889 10.8778C6.89852 11.0841 7.16929 11.2 7.45161 11.2H16.9355C17.2178 11.2 17.4886 11.0841 17.6882 10.8778C17.8878 10.6715 18 10.3917 18 10.1C18 9.80826 17.8878 9.52847 17.6882 9.32218C17.4886 9.11589 17.2178 9 16.9355 9H7.45161ZM6.3871 15C6.3871 14.7348 6.48906 14.4804 6.67054 14.2929C6.85203 14.1054 7.09818 14 7.35484 14H17.0323C17.2889 14 17.5351 14.1054 17.7166 14.2929C17.898 14.4804 18 14.7348 18 15C18 15.2652 17.898 15.5196 17.7166 15.7071C17.5351 15.8946 17.2889 16 17.0323 16H7.35484C7.09818 16 6.85203 15.8946 6.67054 15.7071C6.48906 15.5196 6.3871 15.2652 6.3871 15ZM3 10C3 9.73478 3.10196 9.48043 3.28345 9.29289C3.46493 9.10536 3.71108 9 3.96774 9C4.2244 9 4.47055 9.10536 4.65204 9.29289C4.83353 9.48043 4.93548 9.73478 4.93548 10C4.93548 10.2652 4.83353 10.5196 4.65204 10.7071C4.47055 10.8946 4.2244 11 3.96774 11C3.71108 11 3.46493 10.8946 3.28345 10.7071C3.10196 10.5196 3 10.2652 3 10ZM3.96774 14C3.71108 14 3.46493 14.1054 3.28345 14.2929C3.10196 14.4804 3 14.7348 3 15C3 15.2652 3.10196 15.5196 3.28345 15.7071C3.46493 15.8946 3.71108 16 3.96774 16C4.2244 16 4.47055 15.8946 4.65204 15.7071C4.83353 15.5196 4.93548 15.2652 4.93548 15C4.93548 14.7348 4.83353 14.4804 4.65204 14.2929C4.47055 14.1054 4.2244 14 3.96774 14Z" fill="var(--fill-0, #949494)"/>
</g>
</svg>
