<svg preserveAspectRatio="none" width="100%" height="100%" overflow="visible" style="display: block;" viewBox="0 0 22 22" fill="none" xmlns="http://www.w3.org/2000/svg">
<g id="tdesign:user-blocked-filled">
<path id="Vector" d="M10.5413 1.83334C9.20421 1.83334 7.92184 2.36451 6.97634 3.31001C6.03085 4.2555 5.49967 5.53787 5.49967 6.875C5.49967 8.21214 6.03085 9.4945 6.97634 10.44C7.92184 11.3855 9.20421 11.9167 10.5413 11.9167C11.8785 11.9167 13.1608 11.3855 14.1063 10.44C15.0518 9.4945 15.583 8.21214 15.583 6.875C15.583 5.53787 15.0518 4.2555 14.1063 3.31001C13.1608 2.36451 11.8785 1.83334 10.5413 1.83334ZM11.458 16.5C11.458 15.8379 11.5884 15.1823 11.8418 14.5706C12.0951 13.959 12.4665 13.4032 12.9347 12.935C13.4028 12.4668 13.9586 12.0955 14.5703 11.8421C15.182 11.5887 15.8376 11.4583 16.4997 11.4583C17.1618 11.4583 17.8174 11.5887 18.429 11.8421C19.0407 12.0955 19.5965 12.4668 20.0647 12.935C20.5328 13.4032 20.9042 13.959 21.1576 14.5706C21.4109 15.1823 21.5413 15.8379 21.5413 16.5C21.5413 17.8371 21.0102 19.1195 20.0647 20.065C19.1192 21.0105 17.8368 21.5417 16.4997 21.5417C15.1625 21.5417 13.8802 21.0105 12.9347 20.065C11.9892 19.1195 11.458 17.8371 11.458 16.5ZM16.4997 13.2917C15.944 13.2914 15.3977 13.4356 14.9144 13.7099C14.4312 13.9843 14.0274 14.3795 13.7428 14.8568C13.4582 15.3341 13.3024 15.8771 13.2908 16.4327C13.2791 16.9883 13.412 17.5374 13.6763 18.0263L18.0259 13.6776C17.5571 13.4242 17.0326 13.2916 16.4997 13.2917ZM19.323 14.9738L14.9734 19.3224C15.5814 19.652 16.2795 19.7763 16.9639 19.6769C17.6482 19.5774 18.2821 19.2595 18.7711 18.7705C19.2601 18.2815 19.578 17.6476 19.6775 16.9633C19.7769 16.2789 19.6526 15.5817 19.323 14.9738ZM11.2334 12.8333C10.4828 13.9085 10.0811 15.1887 10.083 16.5C10.083 17.8631 10.5083 19.1272 11.2334 20.1667H1.83301V18.3333C1.83301 16.8746 2.41247 15.4757 3.44392 14.4442C4.47537 13.4128 5.87432 12.8333 7.33301 12.8333H11.2334Z" fill="var(--fill-0, #949494)"/>
</g>
</svg>
