<svg preserveAspectRatio="none" width="100%" height="100%" overflow="visible" style="display: block;" viewBox="0 0 20 22" fill="none" xmlns="http://www.w3.org/2000/svg">
<path id="Vector" d="M9.64286 0C9.04911 0 8.57143 0.459766 8.57143 1.03125V3.4375L7.30357 0.992578C5.60714 1.86914 4.41964 3.54922 4.29464 5.5H4.28571C3.69196 5.5 3.21429 5.95977 3.21429 6.53125C3.21429 7.10273 3.69196 7.5625 4.28571 7.5625H15.7143C16.308 7.5625 16.7857 7.10273 16.7857 6.53125C16.7857 5.95977 16.308 5.5 15.7143 5.5H15.7054C15.5804 3.54922 14.3929 1.86914 12.6964 0.992578L11.4286 3.4375V1.03125C11.4286 0.459766 10.9509 0 10.3571 0H9.64286ZM10 13.75C12.9152 13.75 15.317 11.6488 15.6696 8.9375H4.33036C4.68304 11.6488 7.08482 13.75 10 13.75ZM6 15.125C2.6875 15.125 0 17.7117 0 20.9C0 21.5059 0.513393 22 1.14286 22H18.8571C19.4866 22 20 21.5059 20 20.9C20 17.7117 17.3125 15.125 14 15.125H6Z" fill="var(--fill-0, #7065F0)"/>
</svg>
