<svg preserveAspectRatio="none" width="100%" height="100%" overflow="visible" style="display: block;" viewBox="0 0 442 357.096" fill="none" xmlns="http://www.w3.org/2000/svg">
<g id="Group 1000002114">
<path id="Vector" d="M0 143.934L1.14699 143.145L128.068 143.181C139.951 140.671 149.951 132.475 159.378 125.213C199.952 93.8492 235.635 56.2988 277.052 25.9214C287.823 18.0133 298.629 10.392 311.264 5.71167C344.455 -6.60785 380.98 0.690611 401.518 30.6376L441.322 30.799C443.401 33.5965 440.229 34.6903 438.132 35.8739C429.512 40.7335 419.493 44.2124 410.532 48.5162C409.618 48.9645 405.299 50.9729 404.995 51.493C397.629 89.0433 389.869 127.096 374.295 162.189C363.578 186.344 350.065 206.733 328.415 222.352C303.504 240.321 272.804 248.229 242.194 247.942L279.847 357.096H255.868L213.86 236.519C214.057 235.676 217.247 234.224 218.107 233.793C224.272 230.763 230.903 228.772 237.032 225.634C269.148 209.172 292.249 178.974 307.411 146.893C308.253 145.118 309.293 143.002 309.974 141.191C310.171 140.635 311.264 137.64 310.816 137.371C309.884 136.833 309.149 137.64 308.63 138.303C304.579 143.486 301.622 149.708 297.859 155.142C261.012 208.275 207.014 227.194 144.073 228.611C110.201 229.364 76.4181 227.571 42.582 227.696C42.2056 227.212 40.8256 226.387 41.1482 225.76L69.1419 195.561C37.9402 196.942 7.81386 176.625 0.0179217 146.014V143.952L0 143.934ZM358.775 32.9688C359.187 32.4129 357.108 31.6239 356.785 31.4805C340.53 24.702 322.913 42.993 331.91 58.9528C338.2 70.0888 351.785 72.689 361.624 64.3325C369.133 57.9486 370.603 48.2472 365.746 39.6935C364.993 38.9582 365.262 41.935 365.226 42.1323C364.599 47.3327 363.147 51.0088 357.341 51.5288C346.426 52.4972 343.953 37.0036 353.129 33.9013C355.136 33.2199 356.911 33.8834 358.792 32.9868L358.775 32.9688Z" fill="white"/>
<path id="Vector_2" d="M305.21 353.727L273.097 263.312L294.682 258.865L329.502 353.727H305.21Z" fill="white"/>
</g>
</svg>
