<svg width="85" height="87" viewBox="0 0 85 87" fill="none" xmlns="http://www.w3.org/2000/svg">
<g clip-path="url(#clip0_212_12409)">
<path d="M0 0H84.6597H84.7601H85V86.6602H84.6688H0V0ZM58.237 62.2667C57.8351 62.3365 57.8969 62.2655 57.6366 62.5075C57.458 62.9529 57.4858 63.2316 57.9534 63.4525L58.2886 63.3855L58.237 62.2667Z" fill="white"/>
<path d="M45.827 27.2529C46.1368 27.1664 46.367 27.1267 46.5663 26.8845C47.6611 25.5538 49.1633 24.6795 50.5498 23.6266C51.9707 22.5476 53.7799 21.039 55.2929 20.1422C58.6012 18.1811 63.0436 17.5989 66.7609 18.5522C68.918 19.1054 70.3871 20.0699 72.0096 21.5698C72.3006 21.8388 72.7032 22.1699 72.9614 22.4689C73.1389 22.6743 73.0584 23.0552 73.2431 23.3706C74.5174 23.5882 80.3941 23.0499 80.9215 23.769C80.9247 24.5442 78.6016 25.2021 77.9561 25.3532C77.4748 25.8367 78.2707 26.0424 76.9245 26.0826L76.8548 26.1029C76.4539 26.2177 75.3627 26.3497 75.1708 26.4477C75.1715 26.9774 75.5509 26.8199 74.9309 27.2351C74.909 27.5488 74.9143 27.612 74.7399 27.8797C74.4824 28.0611 74.169 28.1349 74.0533 28.2187L74.0375 28.5885L74.0302 29.0907C74.0405 29.6417 74.0167 31.7839 73.9086 32.2551C73.4191 32.3741 73.3492 32.0172 73.0505 32.3636C73.0337 32.9557 73.0201 33.4759 72.9564 34.0646C72.9452 34.6581 72.9247 35.2513 72.8951 35.8442C72.892 36.165 72.9173 36.7116 72.809 36.9917L72.6743 36.9956L72.5334 36.7776L72.4173 36.9572L72.2792 36.7288L72.1424 36.6972C72.0787 37.2252 72.018 37.7535 71.9599 38.2822C71.9467 38.71 71.9529 39.404 71.8444 39.7958L71.7349 39.869L71.5633 39.7619C71.3008 39.6954 71.3734 39.6738 71.1529 39.7491L71.049 40.671C71.0118 41.0299 70.9626 41.4091 70.9672 41.7681C70.95 42.1092 70.9897 42.6238 70.7733 42.8278L70.5646 42.7277C70.4442 42.7233 70.2883 42.7059 70.1778 42.7402C70.0595 43.5291 69.9549 44.4435 69.5622 45.1415L69.5545 45.074C69.1551 46.0393 68.809 46.9987 68.3757 47.9724C66.2082 52.843 62.4658 56.6682 57.8472 59.2759C57.3039 59.5827 55.6589 59.5889 55.46 59.7401L55.5153 59.7991L55.5037 59.6967L55.459 59.7428C55.8137 59.9665 56.171 59.9432 56.4408 60.0727L56.3882 60.2015C55.7422 60.3057 54.9482 60.4562 54.3078 60.4708C54.3538 60.863 54.4225 60.8816 54.271 61.1723C53.882 61.4206 53.2428 61.344 52.7488 61.3431L52.1484 61.3363L51.1941 61.4584L49.59 61.6697C48.5972 61.8837 46.9968 62.5805 45.8915 62.2148C45.9092 62.6063 45.9444 63.4333 46.2014 63.721C46.2987 63.5701 46.3255 63.4076 46.3709 63.2318L46.4583 63.2684C47.146 66.0619 47.652 68.5018 48.9038 71.1382C49.2212 71.8067 49.3787 72.8078 49.6967 73.5037C50.5522 75.8387 51.4517 78.1708 52.2539 80.524C52.3907 80.8315 52.4832 81.2992 52.5628 81.6373C51.0611 81.7891 49.7842 81.7624 48.2772 81.7733C48.0734 81.7515 48.0579 81.7375 47.8702 81.6466C47.6835 81.33 47.7447 81.3249 47.7301 80.9084C47.2436 79.254 46.6871 77.0931 46.107 75.516C44.6981 71.6861 43.203 67.8822 41.9281 64.0028C41.4283 62.482 40.8806 61.8299 40.7526 60.1598C40.7692 60.0221 40.7702 59.6341 40.7746 59.4777C41.0908 59.3267 41.4968 59.3509 41.8543 59.3421C41.9594 59.1226 41.7619 59.0024 41.8468 58.5999C42.0487 58.4309 42.4562 58.4589 42.743 58.4477C43.0815 58.4386 43.5596 58.4687 43.8334 58.3008C44.0091 58.0484 43.9534 58.1099 43.9265 57.7337C44.0615 57.5466 44.0003 57.6062 44.2891 57.5444C44.4684 57.827 44.0967 57.9682 44.2488 58.3235C44.4001 58.3566 44.5259 58.2905 44.6754 58.2366C44.8128 57.9505 44.607 57.9975 44.627 57.5922C44.9054 57.3653 46.0099 57.4401 45.9523 57.1097C45.8353 56.4367 46.4037 56.8005 46.8528 56.4328C47.2371 56.1183 47.5467 55.8383 47.9166 55.5153C50.7447 53.6078 52.6913 51.1829 54.5178 48.3692C54.2638 47.9779 54.2413 47.8196 53.8251 47.6519C51.8757 50.0319 49.5451 52.0724 46.9283 53.6901C46.4641 53.9807 45.5753 54.5321 45.0353 54.6008C44.7562 54.8858 44.8401 55.0677 44.5163 55.2729L43.9686 55.3711C43.7751 55.3987 43.4854 55.4513 43.2981 55.4447C42.3388 55.7163 43.1569 56.0132 42.433 56.3727C42.2943 56.4416 41.3697 56.4548 41.1623 56.4431L40.8074 56.4582C40.767 56.7905 40.8004 57.0734 40.6119 57.2771C40.3256 57.3044 40.2519 57.2993 39.973 57.2702C39.2514 57.325 38.2617 57.4316 37.5596 57.4465L37.4869 57.4387C36.6624 57.6926 37.2484 57.9105 36.8305 58.2991C36.5803 58.382 36.3893 58.3571 36.1268 58.3468C34.7538 58.4001 32.5158 58.5229 31.1848 58.4266C30.2848 58.4421 29.3557 58.4392 28.4546 58.4277C22.5591 58.352 16.6019 58.553 10.714 58.3801C10.1726 58.3727 10.0722 58.4597 9.77248 58.0156C9.79904 57.3805 10.3569 57.4856 10.8157 57.5145C10.8795 57.1552 10.7732 57.0073 10.8595 56.6039C11.1077 56.4197 11.2777 56.4652 11.63 56.4354C11.6416 56.12 11.6428 55.954 11.7129 55.6471C11.988 55.4358 12.2713 55.4691 12.6659 55.4122C12.6496 55.1467 12.5965 54.8545 12.7338 54.6361C12.9254 54.4652 13.2987 54.457 13.5666 54.4261C13.7783 53.7083 13.7573 53.8257 14.4427 53.5294C14.6373 53.3594 14.6464 52.9405 14.6804 52.6673C9.33046 52.5484 4.48196 49.4291 3.02546 44.1355C2.95062 43.9958 2.98025 43.0713 2.98109 42.848C5.75467 42.9404 9.0191 42.8568 11.8226 42.8541L25.7812 42.8407L26.4381 42.8309C26.823 42.8356 26.9832 42.8423 27.3569 42.7669C27.3421 42.4737 27.3225 42.3334 27.3971 42.0473C27.6545 41.8475 27.7461 41.9022 28.1271 41.8609C28.4893 41.7858 28.7842 41.8128 29.1367 41.661C29.263 41.4921 29.2738 41.3986 29.3284 41.1996C32.5875 38.7535 35.5027 36.0976 38.6147 33.484C39.2867 32.9196 42.1903 30.4112 42.8523 30.1122C42.8748 29.8391 42.8696 29.6161 43.0094 29.3813C43.2109 29.2046 43.5963 29.2288 43.8768 29.2176C44.0808 28.9597 43.8735 28.6616 44.104 28.34L44.2951 28.3476C44.3863 28.5774 44.2328 28.6717 44.1868 29.0264C44.4213 29.1533 44.3146 29.1276 44.6052 29.0995C44.9227 28.7354 44.4953 28.775 44.8908 28.1263C44.9518 27.9277 44.9249 27.8102 45.0378 27.49C45.317 27.2626 45.428 27.3117 45.827 27.2529Z" fill="#E60221"/>
<path d="M11.629 56.4355C11.5904 56.7232 11.5061 57.0597 11.6388 57.3034C11.9763 57.5892 16.9408 57.4782 17.8042 57.4766L27.6827 57.5138C29.2906 57.5196 31.2766 57.453 32.8509 57.5242C32.6274 57.974 33.0556 58.0716 32.6656 58.3617C32.1294 58.3637 31.7176 58.3603 31.1838 58.4267C30.2838 58.4422 29.3547 58.4394 28.4536 58.4278C22.5581 58.3521 16.6009 58.5532 10.713 58.3803C10.1716 58.3729 10.0712 58.4599 9.77148 58.0157C9.79805 57.3806 10.3559 57.4857 10.8147 57.5146C10.8785 57.1553 10.7722 57.0074 10.8586 56.6041C11.1067 56.4199 11.2767 56.4653 11.629 56.4355Z" fill="#F4263B"/>
<path d="M10.8147 57.5129L10.713 58.3785C10.1716 58.3711 10.0712 58.4581 9.77148 58.0139C9.79805 57.3788 10.3559 57.4839 10.8147 57.5129Z" fill="#FEAAB3"/>
<path d="M2.98109 42.8471C5.75467 42.9395 9.0191 42.8559 11.8226 42.8532L25.7812 42.8398L25.3448 42.9494L25.2589 43.0983C25.3251 43.2891 25.4273 43.5591 25.4779 43.746C25.3431 43.7527 24.821 43.769 24.7115 43.7799C22.6471 43.9842 3.4219 43.5994 3.0497 43.947L3.02546 44.1346C2.95062 43.9949 2.98025 43.0704 2.98109 42.8471Z" fill="#FC7887"/>
<path d="M52.2523 80.5234C52.3891 80.8309 52.4815 81.2986 52.5611 81.6367C51.0595 81.7885 49.7826 81.7618 48.2756 81.7727C48.0718 81.7509 48.0563 81.7369 47.8686 81.646C47.6819 81.3294 47.743 81.3243 47.7285 80.9078L47.8104 80.9607C48.8751 80.806 51.0074 81.1038 52.121 80.7762C52.1845 80.7575 52.2182 80.6103 52.2523 80.5234Z" fill="#FEAAB3"/>
<path d="M47.7285 80.9082L47.8104 80.9611C48.4485 81.1899 48.1869 81.2046 48.2756 81.7731C48.0718 81.7512 48.0563 81.7373 47.8686 81.6464C47.6819 81.3298 47.743 81.3247 47.7285 80.9082Z" fill="#FDB2C5"/>
<path d="M36.5706 57.4605L37.4856 57.4395C36.6611 57.6934 37.2471 57.9113 36.8293 58.2999C36.5791 58.3828 36.3881 58.3579 36.1255 58.3476C34.7525 58.4009 32.5145 58.5237 31.1836 58.4274C31.7173 58.361 32.1291 58.3644 32.6654 58.3624C33.0553 58.0723 32.6272 57.9747 32.8506 57.5249L33.973 57.5234C34.8391 57.5096 35.7049 57.4886 36.5706 57.4605Z" fill="#FC7887"/>
<path d="M32.8493 57.523L33.9717 57.5215C33.992 57.7449 34.0115 57.9155 34.0041 58.1419C33.688 58.5106 33.1391 58.3843 32.6641 58.3605C33.054 58.0704 32.6259 57.9728 32.8493 57.523Z" fill="#F9576B"/>
<path d="M36.5723 57.4605L37.4873 57.4395C36.6628 57.6934 37.2488 57.9113 36.8309 58.2999C36.5808 58.3828 36.3898 58.3579 36.1272 58.3476C36.1541 58.147 36.03 57.8718 35.9609 57.6666C36.1525 57.4953 36.2867 57.5184 36.5723 57.4605Z" fill="#FDB2C5"/>
<path d="M72.1452 36.3238C72.153 35.8281 72.1049 34.3708 72.3491 34.0645L72.5488 34.092L72.7555 34.5294L72.8381 34.5039L72.9566 34.0659C72.9454 34.6595 72.9249 35.2527 72.8953 35.8456C72.8922 36.1664 72.9175 36.713 72.8092 36.9931L72.6745 36.997L72.5335 36.779L72.4175 36.9586L72.2794 36.7302L72.1426 36.6985L72.1452 36.3238Z" fill="#FC7887"/>
<path d="M72.1452 36.3224C72.216 36.0962 72.236 35.6838 72.2914 35.3965L72.3852 35.3991L72.547 35.7092L72.5472 35.7966L72.8953 35.8441C72.8922 36.165 72.9175 36.7116 72.8092 36.9916L72.6745 36.9955L72.5335 36.7776L72.4175 36.9572L72.2794 36.7288L72.1426 36.6971L72.1452 36.3224Z" fill="#FDB2C5"/>
<path d="M72.5468 35.7969L72.895 35.8444C72.8919 36.1653 72.9171 36.7119 72.8089 36.9919L72.6742 36.9958L72.5332 36.7779C72.5736 36.5041 72.5522 36.0867 72.5468 35.7969Z" fill="#BC6963"/>
<path d="M72.5487 34.0905L72.7554 34.5279L72.838 34.5024L72.9565 34.0645C72.9453 34.658 72.9248 35.2512 72.8952 35.8441L72.547 35.7965L72.5469 35.7091C72.5621 35.1675 72.554 34.6321 72.5487 34.0905Z" fill="#CF3F3B"/>
<path d="M73.1157 30.1133C73.377 30.1742 73.6105 30.268 73.8443 30.1721C73.9832 29.9977 73.984 29.3997 74.0286 29.0918C74.0389 29.6428 74.015 31.785 73.907 32.2561C73.4175 32.3752 73.3476 32.0182 73.0488 32.3647L73.1157 30.1133Z" fill="#FC7887"/>
<path d="M45.8906 62.2157C45.843 61.9705 45.817 61.8917 45.8665 61.6379C46.2471 61.533 49.058 61.6548 49.5891 61.6707C48.5963 61.8847 46.9959 62.5815 45.8906 62.2157Z" fill="#FEAAB3"/>
<path d="M52.4199 60.6436C52.8668 60.557 53.8183 60.5086 54.3069 60.4707C54.3528 60.8628 54.4215 60.8814 54.27 61.1722C53.881 61.4205 53.2419 61.3439 52.7478 61.343C52.7551 60.9744 52.6514 60.9186 52.4199 60.6436Z" fill="#FEAAB3"/>
<path d="M38.7624 56.6863C39.0638 56.5927 39.296 56.5936 39.6096 56.5762L39.7528 56.9715L39.972 57.2702C39.2504 57.325 38.2607 57.4316 37.5586 57.4464C37.9407 57.2543 37.8377 57.2119 38.08 56.7526C38.2808 56.615 38.5163 56.6661 38.7624 56.6863Z" fill="#F4263B"/>
<path d="M38.7617 56.6863C39.0631 56.5927 39.2954 56.5936 39.6089 56.5762L39.7522 56.9715C39.2652 56.9869 39.1098 57.0101 38.7617 56.6863Z" fill="#FC7887"/>
<path d="M71.1523 39.7492C71.1631 39.4011 71.1482 38.2741 71.3204 38.0547L71.4871 38.0857C71.6605 38.1912 71.7586 38.2756 71.9593 38.2823C71.9461 38.7101 71.9523 39.4041 71.8438 39.7959L71.7343 39.8691L71.5627 39.762C71.3002 39.6955 71.3728 39.6739 71.1523 39.7492Z" fill="#FEAAB3"/>
<path d="M71.4863 38.0859C71.6597 38.1914 71.7578 38.2758 71.9586 38.2825C71.9453 38.7103 71.9515 39.4043 71.843 39.7961L71.7335 39.8693L71.5619 39.7622C71.5601 39.2292 71.5823 38.603 71.4863 38.0859Z" fill="#CF3F3B"/>
<path d="M53.8242 47.6525C54.1211 47.2873 54.287 47.0798 54.535 46.668C54.8693 46.8737 55.0125 46.9258 55.2069 47.2586C55.0166 47.5678 54.7164 48.0876 54.5168 48.3698C54.2628 47.9785 54.2403 47.8202 53.8242 47.6525Z" fill="#FED3E0"/>
<path d="M54.5352 46.6681C54.6279 46.1957 54.5713 46.1161 54.8957 45.8443C55.6016 45.7795 55.5042 46.9843 55.207 47.2587C55.0126 46.9259 54.8694 46.8738 54.5352 46.6681Z" fill="#FDB2C5"/>
<path d="M41.1621 56.4437C42.0887 56.3224 41.6617 56.3152 42.03 55.6447C42.2654 55.4324 42.9275 55.4674 43.2979 55.4453C42.3387 55.7169 43.1567 56.0137 42.4328 56.3733C42.2941 56.4422 41.3695 56.4554 41.1621 56.4437Z" fill="#FC7887"/>
<path d="M51.8033 60.6774L52.4201 60.6426C52.6516 60.9176 52.7553 60.9734 52.748 61.3419L52.1476 61.3351L51.1934 61.4572C51.3603 60.9905 51.3798 60.9093 51.8033 60.6774Z" fill="#F4263B"/>
<path d="M73.1152 30.1135C73.1204 29.9215 73.1346 29.7255 73.1462 29.5333C73.4014 28.9987 73.7724 29.5881 74.0354 28.5898L74.0281 29.092C73.9835 29.3999 73.9828 29.998 73.8438 30.1723C73.61 30.2683 73.3765 30.1745 73.1152 30.1135Z" fill="#F9576B"/>
<path d="M41.8536 59.3417C41.9587 59.1221 41.7611 59.002 41.8461 58.5995C42.048 58.4305 42.4555 58.4585 42.7423 58.4473C42.7508 58.7238 42.7997 59.0126 42.6609 59.2308C42.3489 59.3865 42.1213 59.272 41.8536 59.3417Z" fill="#F9576B"/>
<path d="M39.6094 56.577L40.8062 56.459C40.7658 56.7913 40.7992 57.0742 40.6107 57.2779C40.3244 57.3052 40.2508 57.3001 39.9718 57.271L39.7526 56.9723L39.6094 56.577Z" fill="#FED3E0"/>
<path d="M25.7801 42.8399L26.437 42.8301C26.0606 43.06 26.1304 43.1388 26.1738 43.5756C25.9914 43.8286 25.7706 43.7662 25.4768 43.746C25.4262 43.5591 25.324 43.2891 25.2578 43.0984L25.3437 42.9494L25.7801 42.8399Z" fill="#F9576B"/>
<path d="M70.2858 41.7666C69.919 41.1182 70.509 40.7848 71.0482 40.6719C71.011 41.0308 70.9618 41.41 70.9664 41.769C70.7798 41.8659 70.7545 41.869 70.544 41.8633L70.2858 41.7666Z" fill="#F4263B"/>
<path d="M12.6664 55.4119C12.6501 55.1465 12.597 54.8542 12.7343 54.6358C12.9259 54.465 13.2991 54.4567 13.5671 54.4258C13.5735 54.7214 13.597 54.8744 13.4706 55.1423C13.2164 55.3946 13.0345 55.3725 12.6664 55.4119Z" fill="#F9576B"/>
<path d="M74.0531 28.2179C74.0468 27.9486 74.0016 27.5367 74.1396 27.3242C74.3547 27.1677 74.6557 27.2211 74.9307 27.2343C74.9088 27.548 74.9141 27.6112 74.7397 27.8789C74.4822 28.0603 74.1688 28.1341 74.0531 28.2179Z" fill="#FFEBF1"/>
<path d="M44.8887 28.1273C44.9497 27.9288 44.9228 27.8112 45.0358 27.4911C45.3149 27.2636 45.4259 27.3128 45.8249 27.2539C45.7656 27.6082 45.7865 27.8919 45.5858 28.1263C45.2788 28.1775 45.1939 28.1606 44.8887 28.1273Z" fill="#FED3E0"/>
<path d="M42.8516 30.1115C42.8741 29.8384 42.8688 29.6153 43.0086 29.3806C43.2102 29.2038 43.5956 29.228 43.876 29.2168C43.8295 29.5299 43.8342 29.7027 43.6052 29.9171C43.2935 30.0625 43.1946 30.0676 42.8516 30.1115Z" fill="#F9576B"/>
<path d="M27.3557 42.7673C27.3409 42.4741 27.3213 42.3338 27.3959 42.0477C27.6533 41.848 27.7449 41.9027 28.1259 41.8613C28.1316 42.197 28.1888 42.4266 28.0463 42.6955C27.8265 42.7946 27.5968 42.771 27.3557 42.7673Z" fill="#FDB2C5"/>
<path d="M43.9673 55.3699C44.0096 55.138 43.8682 55.0625 43.9846 54.7229C44.2386 54.5514 44.6474 54.618 45.0339 54.5996C44.7548 54.8847 44.8388 55.0665 44.515 55.2717L43.9673 55.3699Z" fill="#F9576B"/>
<path d="M76.9231 26.0829C77.1158 26.0076 77.1582 25.9933 77.3205 25.8667C77.1649 25.7111 77.0253 25.6535 76.832 25.5511L76.8365 25.4527C77.2831 25.3714 77.5055 25.3677 77.9547 25.3535C77.4734 25.837 78.2693 26.0427 76.9231 26.0829Z" fill="#FEAAB3"/>
<path d="M70.543 41.8619C70.7536 41.8676 70.7788 41.8644 70.9654 41.7676C70.9482 42.1087 70.988 42.6233 70.7715 42.8273L70.5628 42.7271L70.543 41.8619Z" fill="#CF3F3B"/>
<path d="M70.2865 41.7656L70.5446 41.8623L70.5645 42.7276C70.4441 42.7232 70.2882 42.7059 70.1777 42.7401C70.2099 42.4148 70.2462 42.09 70.2865 41.7656Z" fill="#FDB2C5"/>
<path d="M62.552 24.2496C63.1769 23.7684 64.5522 23.1655 65.2675 23.6679C65.3942 23.95 65.3798 23.8311 65.3415 24.1207C64.9576 24.5434 64.6683 24.1489 64.2704 24.3686C64.2131 24.7233 64.2193 24.9208 64.2237 25.2824L64.2524 26.188L64.2778 27.191C64.809 27.1899 65.34 27.1997 65.8708 27.2207L66.3098 27.1176L66.2512 26.7146L66.2714 26.5116C66.4895 26.3254 66.8648 26.3413 67.1883 26.3077C67.4379 26.1569 67.5746 26.1275 67.8524 26.0468L68.0734 26.1104C68.218 26.4762 68.2043 27.7237 68.2106 28.1736C67.8701 28.1827 67.5554 28.1877 67.2155 28.2265C67.2266 28.504 67.2794 28.8709 67.1221 29.082C66.8206 29.2887 66.4308 29.2192 65.8737 29.4613C66.0756 29.5924 66.2478 29.6683 66.3132 29.9007C66.1243 30.1973 65.8576 30.1408 65.5243 30.1378C64.7752 30.2178 63.1783 30.2856 62.496 29.9817L62.4553 29.9094C62.1623 29.374 62.3309 29.4964 61.7232 29.1129L61.4716 28.3145C60.8702 28.2231 60.7808 28.077 60.6796 27.495C60.4513 26.7888 60.4043 26.6514 60.9657 26.1389L61.3827 25.8338C61.5716 25.1238 61.9897 24.6865 62.552 24.2496Z" fill="white"/>
<path d="M62.5508 24.2496C63.1757 23.7684 64.551 23.1655 65.2663 23.6679C65.393 23.95 65.3786 23.8311 65.3403 24.1207C64.9564 24.5434 64.6671 24.1489 64.2692 24.3686C64.2119 24.7233 64.2181 24.9208 64.2225 25.2824L64.1052 25.4284C63.7214 25.4005 63.5455 25.2547 63.2284 25.2941C63.2583 25.1292 63.2068 24.8962 63.1801 24.7233C63.0277 24.4316 62.8532 24.3866 62.5508 24.2496Z" fill="#FED3E0"/>
<path d="M67.8507 26.0488L68.0718 26.1124C68.2164 26.4782 68.2027 27.7257 68.209 28.1756C67.8685 28.1847 67.5538 28.1897 67.2139 28.2284L67.3317 27.2351L65.8691 27.2226L66.3082 27.1195L66.2496 26.7165L66.2697 26.5136C66.4878 26.3274 66.8632 26.3433 67.1866 26.3096C67.4362 26.1589 67.573 26.1295 67.8507 26.0488Z" fill="#FC7887"/>
<path d="M66.25 26.7155L66.2702 26.5125C66.4882 26.3264 66.8636 26.3422 67.1871 26.3086C67.3141 26.5468 67.407 26.7022 67.4818 26.9635C67.1861 27.2274 66.7846 27.1456 66.3523 27.1211L66.3086 27.1185L66.25 26.7155Z" fill="#F9576B"/>
<path d="M66.25 26.7155L66.2702 26.5125C66.4882 26.3264 66.8636 26.3422 67.1871 26.3086C67.3141 26.5468 67.407 26.7022 67.4818 26.9635C67.1006 26.6445 66.7331 26.706 66.25 26.7155Z" fill="#FD6C72"/>
<path d="M60.9657 26.1411L61.3827 25.8359C61.3281 26.8309 61.3213 27.3346 61.4716 28.3166C60.8702 28.2253 60.7808 28.0792 60.6796 27.4972C60.4513 26.791 60.4043 26.6536 60.9657 26.1411Z" fill="#F4263B"/>
<path d="M60.6796 27.4967C60.4513 26.7906 60.4043 26.6531 60.9657 26.1406C60.9379 26.5526 60.9179 27.1592 60.6796 27.4967Z" fill="#F9576B"/>
<path d="M63.2285 25.2949C63.5456 25.2555 63.7216 25.4013 64.1053 25.4292L64.2226 25.2832L64.2513 26.1887C63.9451 26.1764 63.7383 26.1946 63.4779 26.0348C63.2782 25.8374 63.2733 25.5781 63.2285 25.2949Z" fill="#FEAAB3"/>
<path d="M65.5235 30.1382C65.4528 29.8783 65.3035 29.8402 65.3509 29.5162C65.599 29.3827 65.5466 29.4269 65.8729 29.4616C66.0748 29.5928 66.247 29.6687 66.3123 29.9011C66.1235 30.1977 65.8568 30.1411 65.5235 30.1382Z" fill="#FFEBF1"/>
<path d="M56.4411 43.9472C56.4822 43.4794 56.4404 42.7334 57.0458 42.7443C57.2173 42.8596 57.3662 42.9103 57.388 43.1253C57.4267 43.5054 57.4376 44.4555 57.2759 44.7734C56.8078 44.9563 56.7967 44.5909 56.4768 44.8698C56.4449 45.0955 56.4332 45.2299 56.424 45.456C56.3477 45.7759 56.2686 45.8668 55.9897 45.9938C55.4175 45.8074 55.507 45.2834 55.5378 44.8052C55.5305 44.5356 55.4807 44.1307 55.633 43.9275C55.8773 43.8344 56.1695 43.9084 56.4411 43.9472Z" fill="#F9576B"/>
<path d="M55.5378 44.8049C55.8023 44.801 56.0936 44.7578 56.2891 44.921C56.3958 45.1515 56.3974 45.2014 56.424 45.4557C56.3477 45.7756 56.2686 45.8664 55.9897 45.9935C55.4175 45.8071 55.507 45.2831 55.5378 44.8049Z" fill="#FDB2C5"/>
<path d="M67.8528 26.0481C67.6158 25.5855 67.5669 26.0133 67.4102 25.5756C67.5239 25.3304 67.4478 25.4039 67.6934 25.2988C67.9835 25.4205 67.8888 25.3409 68.0597 25.5925L68.0738 26.1116L67.8528 26.0481Z" fill="#F9576B"/>
<path d="M32.2447 3.9101C37.0923 3.73504 41.9993 3.87809 46.8527 3.8331C48.7256 3.81573 50.7851 3.82206 52.6353 4.08946C53.7514 4.71007 55.6155 10.6154 56.513 12.0772C56.6482 12.2975 56.4664 13.1544 56.7544 13.5162L56.96 13.5182L57.0443 13.402C56.985 13.1858 56.9271 12.9692 56.8706 12.7523L56.9593 12.6481C57.5015 12.7344 57.4596 14.2021 57.4946 14.6757C57.7802 14.6557 58.119 14.623 58.4001 14.6163C58.4851 15.3196 58.3992 15.8519 58.4194 16.5291L57.521 16.5138L56.5368 16.5364C55.3275 16.6599 55.1464 16.9828 54.1219 17.5477C51.5917 18.9387 49.2345 20.6681 47.1442 22.6592C47.0734 22.7267 46.2985 23.4472 46.2636 23.4347C45.7139 23.2386 45.24 22.2053 45.0365 21.7291C44.3741 20.1795 43.7405 18.7424 42.7297 17.3829C42.5665 17.1643 42.3984 16.7637 42.1606 16.6824C42.0303 16.9329 41.994 17.5248 41.8291 17.8974C41.467 18.7155 41.1057 19.4709 40.7877 20.309L38.1389 27.442C37.7938 28.3795 37.1277 30.4764 36.654 31.2227C36.225 31.8988 34.531 33.0746 33.8433 33.6158C31.7861 35.2348 27.8443 39.7936 25.2304 39.858C25.2354 40.122 25.2758 40.5171 25.1456 40.73C24.5337 40.8986 19.9371 40.8287 19.0431 40.8272C17.8593 40.8999 16.7473 40.8261 15.5703 40.7484C15.626 40.4558 15.8085 39.3792 15.9919 39.2133L15.9766 39.5502C16.2228 39.5561 16.1299 39.54 16.3764 39.7037C16.5546 39.6139 16.5261 39.5442 16.6074 39.303L16.6848 38.8119L16.79 37.8613L16.993 37.7713L17.0649 37.2837L17.1005 37.1382C17.3004 37.0614 17.2267 37.0795 17.487 37.1829C17.8013 35.9928 18.203 34.8276 18.6888 33.6967C19.2339 32.4044 20.1621 30.7789 20.4852 29.4138C20.5241 29.2492 20.4812 29.2869 20.584 29.1194C21.0115 29.0998 21.1056 29.1509 21.228 28.7344C20.9798 28.5386 20.7875 28.8901 20.4622 28.7039C20.461 28.5955 20.5088 28.5172 20.5537 28.4169C20.8851 28.184 20.7627 28.4403 21.2267 28.3304C21.5538 27.8677 21.6237 26.9014 21.8842 26.35C23.0183 23.9499 24.0987 21.5483 25.127 19.1012C25.7612 17.5922 26.1943 17.0025 26.4672 15.3356C26.4037 15.1089 26.3414 14.9798 26.4365 14.7611C26.7335 14.6114 26.8071 14.6881 27.2019 14.7321C27.2856 14.4923 27.3426 13.7591 27.3898 13.4383C27.3592 13.189 27.3164 13.0244 27.4147 12.7897C27.6957 12.6423 27.7999 12.7129 28.1723 12.7378L28.3836 11.582L28.7671 11.5247L28.8741 11.565C29.048 11.3971 29.4754 9.40273 29.5241 8.97615L29.5839 8.96711C29.6615 9.22186 29.721 9.46175 29.8564 9.69127C30.0014 9.47536 30.3457 7.54509 30.5647 6.9586H30.6504L30.7918 7.48156L30.8618 7.4827L31.3791 5.63642C31.3762 5.32843 31.3756 5.08618 31.5355 4.81965C31.6029 4.99537 31.7237 5.36731 31.8414 5.48262L32.048 5.26183L32.0259 4.8214C32.1399 4.64584 32.2066 4.13942 32.2447 3.9101Z" fill="#E60221"/>
<path d="M32.2462 3.9101C37.0938 3.73504 42.0007 3.87809 46.8542 3.8331C48.7271 3.81573 50.7866 3.82206 52.6368 4.08946C52.0746 4.20657 52.1811 4.54367 51.7334 4.59253C49.7415 4.80984 47.6518 4.7939 45.6533 4.79658C42.5982 4.8094 39.5431 4.80158 36.4881 4.7731C35.8766 4.76467 32.4562 4.69728 32.0273 4.8214C32.1414 4.64584 32.2081 4.13942 32.2462 3.9101Z" fill="#F9576B"/>
<path d="M15.5703 40.7499C15.626 40.4573 15.8085 39.3807 15.9919 39.2148L15.9766 39.5517C16.2228 39.5577 16.1299 39.5416 16.3764 39.7053C16.5546 39.6154 16.5261 39.5457 16.6074 39.3045L16.5758 39.8499L22.4523 39.8421C23.0955 39.8425 24.6427 39.8026 25.2304 39.8596C25.2354 40.1235 25.2758 40.5186 25.1456 40.7315C24.5337 40.9001 19.9371 40.8303 19.0431 40.8287C17.8593 40.9014 16.7473 40.8276 15.5703 40.7499Z" fill="#FEAAB3"/>
<path d="M15.5703 40.7499C15.626 40.4573 15.8085 39.3807 15.9919 39.2148L15.9766 39.5517C16.2228 39.5577 16.1299 39.5416 16.3764 39.7053C16.5546 39.6154 16.5261 39.5457 16.6074 39.3045L16.5758 39.8499C16.5104 40.2154 16.521 40.38 16.533 40.7547C17.1373 40.7646 18.4999 40.7514 19.0431 40.8287C17.8593 40.9014 16.7473 40.8276 15.5703 40.7499Z" fill="#FED3E0"/>
<path d="M57.4963 14.6766C57.7819 14.6566 58.1206 14.6239 58.4018 14.6172C58.4868 15.3205 58.4009 15.8528 58.4211 16.53L57.5227 16.5147C57.5225 16.3445 57.4568 15.9013 57.4336 15.7111L57.5404 15.5756L57.4963 14.6766Z" fill="#FEAAB3"/>
<path d="M57.4961 14.6766C57.7817 14.6566 58.1205 14.6239 58.4016 14.6172C58.3797 15.0067 58.4349 15.3703 58.1953 15.592C57.9296 15.6067 57.8018 15.5975 57.5403 15.5756L57.4961 14.6766Z" fill="#FC7887"/>
<path d="M17.1012 37.1371C17.3011 37.0603 17.2275 37.0785 17.4877 37.1818L17.424 38.1287C17.4315 38.4521 17.4671 38.7263 17.3283 39.0169L17.2092 39.0353C17.0538 38.8586 17.0457 38.8185 16.9755 38.5922L16.6855 38.8108L16.7908 37.8602L16.9938 37.7702L17.0656 37.2827L17.1012 37.1371Z" fill="#FC7887"/>
<path d="M17.1001 37.1371C17.2999 37.0603 17.2263 37.0785 17.4865 37.1818L17.4228 38.1287L17.1994 38.0858C17.0357 37.8816 17.0697 37.5617 17.0645 37.2827L17.1001 37.1371Z" fill="#FED3E0"/>
<path d="M16.9938 37.7715C17.0317 38.0237 17.1377 38.3854 16.9755 38.5934L16.6855 38.8121L16.7908 37.8615L16.9938 37.7715Z" fill="#CF3F3B"/>
<path d="M56.5378 16.5363C56.5948 16.1982 56.4407 16.1446 56.5609 15.7648C56.8279 15.6303 57.1011 15.696 57.4329 15.7101C57.4561 15.9003 57.5218 16.3435 57.522 16.5137L56.5378 16.5363Z" fill="#FC7887"/>
<path d="M26.4682 15.3346C26.4047 15.1078 26.3424 14.9788 26.4375 14.76C26.7345 14.6104 26.8081 14.6871 27.203 14.7311C27.1731 15.0237 27.1581 15.5513 26.9691 15.7538C26.6956 15.7042 26.6833 15.6075 26.4682 15.3346Z" fill="#FED3E0"/>
<path d="M27.3896 13.4386C27.3591 13.1892 27.3162 13.0246 27.4145 12.79C27.6955 12.6425 27.7997 12.7132 28.1721 12.7381L28.0783 13.7128C28.0156 13.7022 27.8222 13.6269 27.7507 13.6007C27.678 13.5586 27.4767 13.4766 27.3896 13.4386Z" fill="#FED3E0"/>
<path d="M31.3796 5.63708C31.3767 5.32909 31.376 5.08683 31.5359 4.82031C31.6034 4.99602 31.7241 5.36796 31.8419 5.48328L32.0485 5.26249C32.0427 5.51706 32.0872 5.55713 31.9508 5.72354C31.699 5.72496 31.5681 5.64387 31.3796 5.63708Z" fill="#CF3F3B"/>
<path d="M28.0793 13.7117C28.0772 14.0859 28.1592 14.3715 27.8048 14.5427L27.6796 14.3865C27.5809 14.1051 27.6728 13.8902 27.7517 13.5996C27.8232 13.6258 28.0166 13.7011 28.0793 13.7117Z" fill="#F9576B"/>
<path d="M70.5181 49.5508C71.8482 51.1694 73.0433 53.417 73.2037 55.5199C73.5645 55.4192 73.5354 55.3701 73.8549 55.4487C74.048 55.6815 73.9563 56.1679 74.0274 56.537C74.053 56.8493 74.0727 57.2186 74.1359 57.5199L74.592 57.4823L74.7971 57.4985C74.9509 57.728 74.8095 58.2729 74.8878 58.5751C75.925 62.5785 77.7679 66.4608 79.141 70.3655L81.7599 77.8465C81.9619 78.4202 82.5336 80.2687 82.7252 80.6922C82.8065 80.9625 82.8298 81.4902 82.8535 81.7895C78.666 81.8298 74.4783 81.8417 70.2906 81.8252C69.2357 81.8241 65.3947 81.8769 64.4801 81.7323C64.2955 81.4983 64.3234 81.2391 64.3577 80.9334C64.2632 80.5506 64.0514 79.9431 63.8965 79.5695C62.0886 75.2074 60.9655 70.6632 59.147 66.3084C58.7649 65.3933 58.3745 64.3584 58.2879 63.3849L58.2363 62.266C58.9152 61.8461 60.0325 61.6071 60.6886 61.1838C64.6798 58.609 69.2813 54.2153 70.5181 49.5508Z" fill="#E60221"/>
<path d="M82.7265 80.6934C82.8078 80.9636 82.8311 81.4913 82.8548 81.7906C78.6673 81.8309 74.4796 81.8428 70.292 81.8263C69.237 81.8252 65.396 81.878 64.4814 81.7334C64.2968 81.4994 64.3247 81.2402 64.3591 80.9345C69.3369 80.6877 77.3484 81.0164 82.5922 80.8107C82.6445 80.765 82.6893 80.7259 82.7265 80.6934Z" fill="#FEAAB3"/>
<path d="M73.2042 55.5202C73.5649 55.4195 73.5359 55.3705 73.8554 55.449C74.0484 55.6818 73.9567 56.1683 74.0279 56.5373C73.7549 56.3248 73.7064 56.457 73.2986 56.3079C73.1539 56.0799 73.1987 55.8058 73.2042 55.5202Z" fill="#F9576B"/>
<path d="M74.1367 57.5201L74.5928 57.4824C74.5928 57.8066 74.631 58.1374 74.4444 58.3963L74.3238 58.3893C74.1437 58.1293 74.1584 57.8397 74.1367 57.5201Z" fill="#FDB2C5"/>
<path d="M8.89641 61.4518L26.4465 61.4453C26.1204 62.8002 26.1898 64.1249 25.7427 65.8814C25.7326 65.5032 25.7478 64.5528 25.5915 64.2779C25.3609 64.4309 25.3896 66.0126 25.2716 66.4655C24.5085 69.395 23.5498 72.275 22.6099 75.1519C21.9608 77.1756 21.4826 78.9238 20.7485 80.9179C20.3888 81.5053 20.6659 81.7052 19.6961 81.7547C17.585 81.8627 15.4652 81.8289 13.3511 81.8293L2.03807 81.8389C2.03177 81.5353 2.05799 81.1816 2.07342 80.8737C2.06782 80.4319 2.09166 80.2595 2.16397 79.8202C2.19283 79.5389 2.20397 79.1358 2.33982 78.9076L2.47111 78.9478L2.94802 78.9771C3.24518 77.0414 4.19791 74.5561 4.8702 72.6918C4.63108 71.9162 4.70957 71.3784 5.39935 70.9053C6.02428 69.2453 6.63165 67.5788 7.22133 65.9058C7.64649 64.6671 8.259 62.5421 8.89641 61.4518Z" fill="#E60221"/>
<path d="M2.07342 80.8725L2.53777 80.8066L2.8707 80.8326C7.09704 80.9701 11.5222 80.7876 15.769 80.8618C17.3866 80.8901 19.1406 80.8303 20.7485 80.9166C20.3888 81.5041 20.6659 81.704 19.6961 81.7535C17.585 81.8615 15.4652 81.8276 13.3511 81.8281L2.03807 81.8377C2.03177 81.534 2.05799 81.1803 2.07342 80.8725Z" fill="#FEAAB3"/>
<path d="M2.16406 79.8169C2.19292 79.5356 2.20406 79.1325 2.33991 78.9043L2.4712 78.9445L2.9481 78.9738C2.92711 79.1722 2.88477 79.7022 2.8477 79.8717L2.48792 79.9084L2.43803 79.7471L2.16406 79.8169Z" fill="#FED3E0"/>
<path d="M2.16406 79.8169C2.19292 79.5356 2.20406 79.1325 2.33991 78.9043L2.4712 78.9445L2.43803 79.7471L2.16406 79.8169Z" fill="#D69085"/>
<path d="M4.87047 72.6908C4.63135 71.9152 4.70984 71.3774 5.39962 70.9043C5.245 71.506 5.0685 72.1019 4.87047 72.6908Z" fill="#FFEBF1"/>
<path d="M2.43757 79.748L2.48746 79.9094C2.50403 80.1974 2.53036 80.5208 2.5374 80.8056L2.07305 80.8714C2.06745 80.4296 2.09129 80.2572 2.1636 79.8179L2.43757 79.748Z" fill="#FD6C72"/>
<path d="M2.48828 79.9098L2.84806 79.873C2.85022 80.1475 2.84125 80.5728 2.87115 80.832L2.53822 80.806C2.53119 80.5212 2.50486 80.1978 2.48828 79.9098Z" fill="#FDB2C5"/>
<path d="M50.6406 64.3082C51.5353 64.346 53.4973 64.2056 54.407 64.1074C54.6048 65.2748 54.9965 65.7255 55.3771 66.7452C55.6946 67.5959 56.358 69.2903 56.5257 70.1455C56.809 70.1172 57.06 70.0614 57.3137 70.1823L57.3623 70.3107L57.2677 70.4529C57.3249 71.0397 57.3658 71.6691 57.4358 72.2471C57.4649 72.5285 57.4906 72.8525 57.5342 73.1279C57.9228 73.0741 57.8893 73.0184 58.1973 73.1558C58.3963 73.4451 58.333 74.0442 58.3918 74.474C58.5969 75.4915 59.5284 77.5714 59.5774 78.3497C59.9294 79.2945 60.2504 78.6015 60.3672 80.0884L60.4314 80.8379L60.4384 81.8389C59.3984 81.7773 58.3356 81.8346 57.2976 81.7785C56.4104 81.7305 55.8582 81.6303 55.777 80.6687C55.6944 80.0072 55.2168 78.8072 54.9877 78.0817C54.3707 76.145 53.7281 74.2167 53.0599 72.2971C52.263 70.0622 50.639 66.5015 50.6406 64.3082Z" fill="#E60221"/>
<path d="M55.7754 80.668C56.2481 81.0774 59.567 80.8614 60.4298 80.8371L60.4368 81.8381C59.3968 81.7765 58.334 81.8338 57.296 81.7777C56.4088 81.7297 55.8566 81.6295 55.7754 80.668Z" fill="#FEAAB3"/>
<path d="M56.5254 70.1432C56.8087 70.1149 57.0596 70.0592 57.3134 70.18L57.3619 70.3084L57.2674 70.4506C57.3246 71.0374 57.3654 71.6668 57.4355 72.2448C57.2957 72.0571 57.0906 72.0205 56.8506 71.927C56.6253 71.656 56.6753 71.5529 56.6179 71.1602C56.5781 70.8341 56.5543 70.4731 56.5254 70.1432Z" fill="#F9576B"/>
<path d="M56.5254 70.1432C56.8087 70.1149 57.0596 70.0592 57.3134 70.18L57.3619 70.3084L57.2674 70.4506L57.2133 70.3577C57.0691 70.7338 57.02 71.036 56.6179 71.1602C56.5781 70.8341 56.5543 70.4731 56.5254 70.1432Z" fill="#FDB2C5"/>
<path d="M57.5332 73.1284C57.9218 73.0746 57.8883 73.0189 58.1964 73.1563C58.3953 73.4457 58.332 74.0447 58.3908 74.4746L58.2508 74.1589C58.0576 74.0297 57.9463 73.9951 57.7343 73.9153C57.5139 73.6452 57.5717 73.529 57.5332 73.1284Z" fill="#FDB2C5"/>
<path d="M59.5762 78.3496C59.9282 79.2944 60.2491 78.6014 60.3659 80.0883C60.2583 79.9869 60.0125 79.9742 59.7504 79.8299C59.5777 79.6054 59.5972 78.7116 59.5762 78.3496Z" fill="#FEAAB3"/>
<path d="M58.2889 63.3864L57.9537 63.4534C57.4861 63.2325 57.4583 62.9538 57.6369 62.5085C57.8972 62.2664 57.8354 62.3374 58.2373 62.2676L58.2889 63.3864Z" fill="#FED3E0" fill-opacity="0.984314"/>
<path d="M40.751 60.159C40.3073 60.3246 40.2626 60.3961 39.9232 60.0603C39.899 59.7887 39.8845 59.8986 40.0405 59.6194C40.3595 59.4264 40.348 59.4896 40.773 59.4769C40.7686 59.6333 40.7676 60.0213 40.751 60.159Z" fill="#FEAAB3"/>
<path d="M28.3848 11.5823C28.4033 11.3147 28.3835 11.0849 28.5405 10.8828C28.7295 11.0609 28.6895 11.2113 28.7682 11.525L28.3848 11.5823Z" fill="#CF3F3B"/>
<path d="M16.793 37.8615C16.8115 37.594 16.8068 37.207 16.969 37.0391L17.1034 37.1384L17.0678 37.2839L16.9959 37.7715L16.793 37.8615Z" fill="#BC6963"/>
</g>
<defs>
<clipPath id="clip0_212_12409">
<rect width="85" height="86.6602" fill="white"/>
</clipPath>
</defs>
</svg>
