<svg width="40" height="40" viewBox="0 0 40 40" fill="none" xmlns="http://www.w3.org/2000/svg">
<path d="M20 0C18.1528 0 16.3819 0.236111 14.6875 0.708333C12.9931 1.18056 11.3958 1.84722 9.89583 2.70833C8.39583 3.56944 7.04861 4.61111 5.85417 5.83333C4.65972 7.05556 3.61806 8.40972 2.72917 9.89583C1.84028 11.3819 1.16667 12.9722 0.708333 14.6667C0.25 16.3611 0.0138889 18.1389 0 20C0 21.8472 0.236111 23.6181 0.708333 25.3125C1.18056 27.0069 1.84722 28.6042 2.70833 30.1042C3.56944 31.6042 4.61111 32.9514 5.83333 34.1458C7.05556 35.3403 8.40972 36.3819 9.89583 37.2708C11.3819 38.1597 12.9722 38.8333 14.6667 39.2917C16.3611 39.75 18.1389 39.9861 20 40C21.8472 40 23.6181 39.7639 25.3125 39.2917C27.0069 38.8194 28.6042 38.1528 30.1042 37.2917C31.6042 36.4306 32.9514 35.3889 34.1458 34.1667C35.3403 32.9444 36.3819 31.5903 37.2708 30.1042C38.1597 28.6181 38.8333 27.0278 39.2917 25.3333C39.75 23.6389 39.9861 21.8611 40 20C40 18.1528 39.7639 16.3819 39.2917 14.6875C38.8194 12.9931 38.1528 11.3958 37.2917 9.89583C36.4306 8.39583 35.3889 7.04861 34.1667 5.85417C32.9444 4.65972 31.5903 3.61806 30.1042 2.72917C28.6181 1.84028 27.0278 1.16667 25.3333 0.708333C23.6389 0.25 21.8611 0.0138889 20 0ZM20 37.3333C18.4028 37.3333 16.8681 37.125 15.3958 36.7083C13.9236 36.2917 12.5486 35.7083 11.2708 34.9583C9.99306 34.2083 8.81944 33.3056 7.75 32.25C6.68056 31.1944 5.77778 30.0278 5.04167 28.75C4.30556 27.4722 3.72222 26.0903 3.29167 24.6042C2.86111 23.1181 2.65278 21.5833 2.66667 20C2.66667 18.4028 2.875 16.8681 3.29167 15.3958C3.70833 13.9236 4.29167 12.5486 5.04167 11.2708C5.79167 9.99306 6.69444 8.81944 7.75 7.75C8.80556 6.68056 9.97222 5.77778 11.25 5.04167C12.5278 4.30556 13.9097 3.72222 15.3958 3.29167C16.8819 2.86111 18.4167 2.65278 20 2.66667C21.5972 2.66667 23.1319 2.875 24.6042 3.29167C26.0764 3.70833 27.4514 4.29167 28.7292 5.04167C30.0069 5.79167 31.1806 6.69444 32.25 7.75C33.3194 8.80556 34.2222 9.97222 34.9583 11.25C35.6944 12.5278 36.2778 13.9097 36.7083 15.3958C37.1389 16.8819 37.3472 18.4167 37.3333 20C37.3333 21.5972 37.125 23.1319 36.7083 24.6042C36.2917 26.0764 35.7083 27.4514 34.9583 28.7292C34.2083 30.0069 33.3056 31.1806 32.25 32.25C31.1944 33.3194 30.0278 34.2222 28.75 34.9583C27.4722 35.6944 26.0903 36.2778 24.6042 36.7083C23.1181 37.1389 21.5833 37.3472 20 37.3333ZM15.1458 18.6667H29.3333V21.3333H15.1458L20.9375 27.0417L19.0625 28.9583L10.0208 20L19.0625 11.0417L20.9375 12.9583L15.1458 18.6667Z" fill="#949494"/>
</svg>
