<svg preserveAspectRatio="none" width="100%" height="100%" overflow="visible" style="display: block;" viewBox="0 0 32 32" fill="none" xmlns="http://www.w3.org/2000/svg">
<g id="Group 1000001951">
<rect id="Rectangle 3463959" width="32" height="32" rx="10" fill="var(--fill-0, #989898)" fill-opacity="0.4"/>
<path id="Vector" d="M26.5749 13.5787L26.0629 11.808L24.8789 8.42667C24.6811 7.84489 24.3086 7.33831 23.8123 6.976C23.3097 6.61243 22.7045 6.41817 22.0843 6.42133H9.8496C9.22841 6.42012 8.6223 6.61263 8.11565 6.97207C7.609 7.3315 7.22704 7.83996 7.02293 8.42667L5.8176 11.8507L5.32693 13.5787C5.31709 13.653 5.31709 13.7283 5.32693 13.8027C5.33053 14.5481 5.53695 15.2784 5.92405 15.9154C6.31114 16.5525 6.86432 17.0721 7.52427 17.4187V22.5707C7.52142 22.9665 7.59728 23.3589 7.74744 23.7251C7.89759 24.0914 8.11905 24.4241 8.39893 24.704C8.96695 25.2654 9.73366 25.5797 10.5323 25.5787H21.4976C21.8916 25.5801 22.282 25.5035 22.6463 25.3534C23.0106 25.2032 23.3416 24.9825 23.6202 24.7039C23.8988 24.4253 24.1195 24.0943 24.2696 23.73C24.4198 23.3657 24.4963 22.9753 24.4949 22.5813V17.4293C25.0699 17.1327 25.5641 16.7008 25.9349 16.1707C26.4233 15.4818 26.6843 14.6577 26.6816 13.8133C26.6524 13.7324 26.6167 13.6539 26.5749 13.5787ZM19.2256 22.5387H12.6443C12.3614 22.5387 12.0901 22.4263 11.89 22.2262C11.69 22.0262 11.5776 21.7549 11.5776 21.472C11.5776 21.1891 11.69 20.9178 11.89 20.7178C12.0901 20.5177 12.3614 20.4053 12.6443 20.4053H19.2256C19.5085 20.4053 19.7798 20.5177 19.9798 20.7178C20.1799 20.9178 20.2923 21.1891 20.2923 21.472C20.2923 21.7549 20.1799 22.0262 19.9798 22.2262C19.7798 22.4263 19.5085 22.5387 19.2256 22.5387ZM24.5589 15.232C24.2581 15.6576 23.8336 15.9787 23.3429 16.1493C22.9735 16.2746 22.5795 16.3099 22.1936 16.2524C21.8077 16.1949 21.4412 16.0462 21.1243 15.8187C20.8054 15.5936 20.5437 15.2968 20.3603 14.9523C20.1769 14.6077 20.0769 14.2249 20.0683 13.8347C20.0683 13.6225 19.984 13.419 19.834 13.269C19.6839 13.119 19.4804 13.0347 19.2683 13.0347C19.0561 13.0347 18.8526 13.119 18.7026 13.269C18.5526 13.419 18.4683 13.6225 18.4683 13.8347V13.888C18.4603 14.1573 18.4099 14.4237 18.3189 14.6773C18.1399 15.1585 17.8203 15.5748 17.4016 15.872C16.9887 16.1703 16.4923 16.3308 15.9829 16.3307C15.4659 16.3317 14.9614 16.1707 14.5406 15.8703C14.1197 15.57 13.8034 15.1453 13.6363 14.656C13.5383 14.4081 13.4876 14.1439 13.4869 13.8773C13.4869 13.6652 13.4026 13.4617 13.2526 13.3116C13.1026 13.1616 12.8991 13.0773 12.6869 13.0773C12.4748 13.0773 12.2713 13.1616 12.1212 13.3116C11.9712 13.4617 11.8869 13.6652 11.8869 13.8773C11.8783 14.2691 11.7783 14.6534 11.595 14.9996C11.4117 15.3459 11.15 15.6446 10.8309 15.872C10.4102 16.1707 9.90691 16.331 9.39093 16.3307C9.11119 16.3226 8.83427 16.2723 8.5696 16.1813C8.08189 16.0145 7.65981 15.697 7.36427 15.2747C7.09159 14.8857 6.93612 14.4266 6.91627 13.952L7.3536 12.3733L8.5376 9.00267C8.63303 8.72806 8.81173 8.49005 9.04881 8.3218C9.28589 8.15354 9.56955 8.06343 9.86027 8.064H22.0949C22.3829 8.06827 22.6656 8.15787 22.9056 8.32C23.1392 8.49067 23.3141 8.72853 23.4069 9.00267L24.5803 12.3307L25.0389 13.952C24.9944 14.417 24.8207 14.8604 24.5376 15.232H24.5589Z" fill="var(--fill-0, white)"/>
</g>
</svg>
